<svg width="1200" height="720" viewBox="0 0 1200 720" fill="none" xmlns="http://www.w3.org/2000/svg">
  <defs>
    <marker id="pace-arrow" viewBox="0 0 12 12" refX="10" refY="6" markerWidth="12" markerHeight="12" orient="auto">
      <path d="M1 1L10 6L1 11" fill="none" stroke="#9D8C69" stroke-width="2.2" stroke-linecap="round" stroke-linejoin="round"/>
    </marker>
  </defs>
  <rect width="1200" height="720" fill="#F8F5EF"/>
  <rect x="56" y="52" width="1088" height="616" rx="28" fill="#FFFEFB" stroke="#D8D1C3" stroke-width="2"/>

  <text x="96" y="122" fill="#2B2218" font-family="Georgia, 'Times New Roman', serif" font-size="38" font-weight="700">PACE</text>
  <text x="96" y="160" fill="#6A6055" font-family="'Helvetica Neue', Arial, sans-serif" font-size="22">Structured operating model for AI-assisted implementation</text>

  <rect x="92" y="234" width="134" height="96" rx="20" fill="#EFE2C6" stroke="#B68D46" stroke-width="2"/>
  <text x="159" y="268" text-anchor="middle" fill="#593E14" font-family="'Helvetica Neue', Arial, sans-serif" font-size="24" font-weight="700">Spec</text>
  <text x="159" y="298" text-anchor="middle" fill="#7D5D25" font-family="'Helvetica Neue', Arial, sans-serif" font-size="16">Intent and</text>
  <text x="159" y="320" text-anchor="middle" fill="#7D5D25" font-family="'Helvetica Neue', Arial, sans-serif" font-size="16">constraints</text>

  <rect x="260" y="234" width="184" height="96" rx="20" fill="#E6EEE6" stroke="#6E9272" stroke-width="2"/>
  <text x="352" y="268" text-anchor="middle" fill="#27422A" font-family="'Helvetica Neue', Arial, sans-serif" font-size="24" font-weight="700">Architecture</text>
  <text x="352" y="298" text-anchor="middle" fill="#4C6950" font-family="'Helvetica Neue', Arial, sans-serif" font-size="16">Review</text>
  <text x="352" y="320" text-anchor="middle" fill="#4C6950" font-family="'Helvetica Neue', Arial, sans-serif" font-size="16">Cross-audit shape</text>

  <rect x="478" y="234" width="158" height="96" rx="20" fill="#E8ECF6" stroke="#7288B3" stroke-width="2"/>
  <text x="557" y="268" text-anchor="middle" fill="#2A3B60" font-family="'Helvetica Neue', Arial, sans-serif" font-size="24" font-weight="700">Milestones</text>
  <text x="557" y="298" text-anchor="middle" fill="#516688" font-family="'Helvetica Neue', Arial, sans-serif" font-size="16">Delivery structure</text>
  <text x="557" y="320" text-anchor="middle" fill="#516688" font-family="'Helvetica Neue', Arial, sans-serif" font-size="16">and sequencing</text>

  <rect x="670" y="234" width="156" height="96" rx="20" fill="#F6E7E8" stroke="#B5747E" stroke-width="2"/>
  <text x="748" y="268" text-anchor="middle" fill="#5A2730" font-family="'Helvetica Neue', Arial, sans-serif" font-size="24" font-weight="700">Atomic</text>
  <text x="748" y="298" text-anchor="middle" fill="#824650" font-family="'Helvetica Neue', Arial, sans-serif" font-size="16">Task slices</text>
  <text x="748" y="320" text-anchor="middle" fill="#824650" font-family="'Helvetica Neue', Arial, sans-serif" font-size="16">bound work</text>

  <rect x="860" y="234" width="142" height="96" rx="20" fill="#ECE8F5" stroke="#8575AD" stroke-width="2"/>
  <text x="931" y="268" text-anchor="middle" fill="#392A59" font-family="'Helvetica Neue', Arial, sans-serif" font-size="24" font-weight="700">Execute</text>
  <text x="931" y="298" text-anchor="middle" fill="#5F4E84" font-family="'Helvetica Neue', Arial, sans-serif" font-size="16">Human-led</text>
  <text x="931" y="320" text-anchor="middle" fill="#5F4E84" font-family="'Helvetica Neue', Arial, sans-serif" font-size="16">agent work</text>

  <path d="M226 282H260" stroke="#87785D" stroke-width="3" stroke-linecap="round"/>
  <path d="M444 282H478" stroke="#87785D" stroke-width="3" stroke-linecap="round"/>
  <path d="M636 282H670" stroke="#87785D" stroke-width="3" stroke-linecap="round"/>
  <path d="M826 282H860" stroke="#87785D" stroke-width="3" stroke-linecap="round"/>

  <rect x="210" y="468" width="220" height="108" rx="22" fill="#F9F1DE" stroke="#C7A45E" stroke-width="2"/>
  <text x="320" y="506" text-anchor="middle" fill="#604619" font-family="'Helvetica Neue', Arial, sans-serif" font-size="24" font-weight="700">Review</text>
  <text x="320" y="538" text-anchor="middle" fill="#7E6231" font-family="'Helvetica Neue', Arial, sans-serif" font-size="16">Check behavior and</text>
  <text x="320" y="560" text-anchor="middle" fill="#7E6231" font-family="'Helvetica Neue', Arial, sans-serif" font-size="16">alignment, not just output</text>

  <rect x="492" y="468" width="224" height="108" rx="22" fill="#EAF4EE" stroke="#6E9D82" stroke-width="2"/>
  <text x="604" y="506" text-anchor="middle" fill="#214433" font-family="'Helvetica Neue', Arial, sans-serif" font-size="24" font-weight="700">Context Preserve</text>
  <text x="604" y="538" text-anchor="middle" fill="#466A58" font-family="'Helvetica Neue', Arial, sans-serif" font-size="16">Docs and status carry</text>
  <text x="604" y="560" text-anchor="middle" fill="#466A58" font-family="'Helvetica Neue', Arial, sans-serif" font-size="16">continuity forward</text>

  <rect x="778" y="468" width="234" height="108" rx="22" fill="#EEF0F8" stroke="#788FBA" stroke-width="2"/>
  <text x="895" y="506" text-anchor="middle" fill="#2B3D64" font-family="'Helvetica Neue', Arial, sans-serif" font-size="24" font-weight="700">Closure</text>
  <text x="895" y="538" text-anchor="middle" fill="#54698D" font-family="'Helvetica Neue', Arial, sans-serif" font-size="16">Done means code, docs,</text>
  <text x="895" y="560" text-anchor="middle" fill="#54698D" font-family="'Helvetica Neue', Arial, sans-serif" font-size="16">status, and handoff align</text>

  <path d="M430 522H492" stroke="#9D8C69" stroke-width="3" stroke-linecap="round"/>
  <path d="M716 522H778" stroke="#9D8C69" stroke-width="3" stroke-linecap="round"/>
  <path d="M931 330V380C931 432 887 467 819 490" stroke="#9D8C69" stroke-width="3" stroke-linecap="round"/>
  <path d="M210 522C166 514 133 498 112 474C95 454 88 431 88 414C88 403 90 394 93 387" stroke="#9D8C69" stroke-width="3" stroke-linecap="round" marker-end="url(#pace-arrow)"/>
</svg>
